<svg xmlns="http://www.w3.org/2000/svg" version="1.0" width="100.000000pt" 
height="90.000000pt" viewBox="0 0 113.000000 100.000000" preserveAspectRatio="xMidYMid meet"
stroke="#491EC4">

<g transform="translate(0.000000,90.000000) scale(0.100000,-0.100000)" fill="#000000" stroke="none">
<path d="M119 817 c-74 -39 -80 -59 -77 -292 3 -199 3 -200 26 -203 12 -2 22 0 22 5 1 4 2 97 3 206 l2 199 27 23 c15 13 47 27 70 30 24 3 204 5 400 3 344 -3 358 -4 385 -24 15 -12 30 -34 33 -50 4 -23 10 -29 30 -29 22 0 25 4 22 33 -3 46 -27 78 -76 102 -40 19 -60 20 -433 20 -388 0 -390 0 -434 -23z"/>
<path d="M980 555 l-135 -135 -57 0 c-58 0 -58 0 -58 -30 l0 -30 62 0 63 0 77 77 78 78 2 -155 c3 -222 2 -231 -28 -258 l-25 -22 -404 0 -404 0 -25 23 c-13 12 -27 32 -31 45 -6 21 -4 22 45 22 l52 0 189 182 c176 169 189 184 189 217 0 36 -1 35 -183 -147 l-182 -182 -93 0 -92 0 0 -35 c0 -19 4 -35 8 -35 4 0 13 -20 20 -45 9 -35 21 -50 54 -72 l42 -28 399 -3 c554 -4 520 -25 525 323 3 230 3 230 28 256 19 19 25 35 22 58 -3 31 -5 30 -138 -104z"/>
<path d="M705 510 l-129 -129 -60 -3 c-60 -3 -61 -3 -61 -33 0 -29 1 -30 55 -33 l55 -3 143 138 c99 96 142 145 142 160 0 12 -4 24 -8 27 -5 3 -66 -53 -137 -124z"/>
</g>
</svg>
